<?xml version="1.0" encoding="UTF-8" standalone="no"?>
<!-- Created with Inkscape (http://www.inkscape.org/) -->

<svg
   width="15.858988mm"
   height="16.124271mm"
   viewBox="0 0 15.858988 16.124271"
   version="1.1"
   id="svg1"
   inkscape:version="1.3 (0e150ed6c4, 2023-07-21)"
   sodipodi:docname="10n.svg"
   xmlns:inkscape="http://www.inkscape.org/namespaces/inkscape"
   xmlns:sodipodi="http://sodipodi.sourceforge.net/DTD/sodipodi-0.dtd"
   xmlns="http://www.w3.org/2000/svg"
   xmlns:svg="http://www.w3.org/2000/svg">
  <sodipodi:namedview
     id="namedview1"
     pagecolor="#505050"
     bordercolor="#eeeeee"
     borderopacity="1"
     inkscape:showpageshadow="0"
     inkscape:pageopacity="0"
     inkscape:pagecheckerboard="0"
     inkscape:deskcolor="#505050"
     inkscape:document-units="mm"
     inkscape:zoom="8.1941057"
     inkscape:cx="55.161602"
     inkscape:cy="38.015131"
     inkscape:window-width="1920"
     inkscape:window-height="1009"
     inkscape:window-x="1912"
     inkscape:window-y="-8"
     inkscape:window-maximized="1"
     inkscape:current-layer="layer1" />
  <defs
     id="defs1" />
  <g
     inkscape:label="Calque 1"
     inkscape:groupmode="layer"
     id="layer1"
     transform="matrix(0.90450532,0,0,0.90450532,-55.042907,-121.81239)">
    <path
       id="path1-9"
       style="fill:#39588c;fill-opacity:1;stroke-width:1.45648"
       d="m 69.454183,149.48546 c -0.230362,0.23037 -0.129773,0.51998 0.166357,0.82262 0.339842,0.34733 0.592336,0.48696 0.86778,0.21151 l 2.384803,-2.3848 c 0.329094,-0.32909 0.130519,-0.64996 -0.150149,-0.92915 -0.242276,-0.241 -0.554966,-0.43415 -0.884051,-0.10505 z"
       sodipodi:nodetypes="sssssss" />
    <path
       id="path1-47"
       style="fill:#39588c;fill-opacity:1;stroke-width:1.45648"
       d="m 64.648746,151.13159 c -0.230362,0.23037 -0.129773,0.51998 0.166357,0.82262 0.339842,0.34733 0.592336,0.48696 0.86778,0.21151 l 2.384803,-2.3848 c 0.329094,-0.32909 0.130519,-0.64996 -0.150149,-0.92915 -0.242276,-0.241 -0.554966,-0.43415 -0.884051,-0.10505 z"
       sodipodi:nodetypes="sssssss" />
    <path
       id="path1-2"
       style="fill:#39588c;fill-opacity:1;stroke-width:1.06361"
       d="m 68.076568,147.78919 c -0.175743,0.17577 -0.300607,0.57547 0.06256,0.92639 0.363199,0.3509 0.817993,0.2613 0.993753,0.0856 l 0.768718,-0.76872 c 0.175759,-0.17576 0.255239,-0.62043 -0.107933,-0.97135 -0.363199,-0.3509 -0.772706,-0.21643 -0.948455,-0.0407 z"
       sodipodi:nodetypes="sssssss" />
    <path
       id="path1-2-0"
       style="fill:#39588c;fill-opacity:1;stroke-width:1.06361"
       d="m 67.630577,151.33289 c -0.175743,0.17577 -0.300607,0.57547 0.06256,0.92639 0.363199,0.3509 0.817993,0.2613 0.993753,0.0856 l 0.768718,-0.76872 c 0.175759,-0.17576 0.255239,-0.62043 -0.107933,-0.97135 -0.363199,-0.3509 -0.772706,-0.21643 -0.948455,-0.0407 z"
       sodipodi:nodetypes="sssssss" />
    <path
       id="path1-2-0-1"
       style="fill:#39588c;fill-opacity:1;stroke-width:1.06361"
       d="m 62.755738,149.85224 c -0.175743,0.17577 -0.300607,0.57547 0.06256,0.92639 0.363199,0.3509 0.817993,0.2613 0.993753,0.0856 l 0.768718,-0.76872 c 0.175759,-0.17576 0.255239,-0.62043 -0.107933,-0.97135 -0.363199,-0.3509 -0.772706,-0.21643 -0.948455,-0.0407 z"
       sodipodi:nodetypes="sssssss" />
    <path
       id="path1-2-0-7"
       style="fill:#39588c;fill-opacity:1;stroke-width:1.06361"
       d="m 64.790552,147.78173 c -0.175743,0.17577 -0.300607,0.57547 0.06256,0.92639 0.363199,0.3509 0.817993,0.2613 0.993753,0.0856 l 0.768718,-0.76872 c 0.175759,-0.17576 0.255239,-0.62043 -0.107933,-0.97135 -0.363199,-0.3509 -0.772706,-0.21643 -0.948455,-0.0407 z"
       sodipodi:nodetypes="sssssss" />
    <path
       id="path2-6"
       style="fill:#39588c;fill-opacity:1;stroke-width:1.37601"
       d="m 72.031457,135.21181 c 0.503826,-0.26401 1.055872,-0.44646 1.630723,-0.53887 -2.908924,3.16837 0.215806,7.89914 4.725302,7.15689 -0.35846,0.39366 -0.789954,0.72938 -1.27565,0.9925 -2.352129,1.25347 -5.396187,0.56594 -6.799093,-1.53565 -1.402907,-2.10158 -0.633411,-4.8214 1.718718,-6.07487 z"
       sodipodi:nodetypes="ccccsc" />
    <path
       id="path2"
       style="fill:#d9e8cf;fill-opacity:1;stroke:none;stroke-width:1.04093"
       d="m 66.575748,137.54345 c -1.574976,0.008 -2.845928,1.27333 -2.840492,2.82792 0.0031,0.2044 0.02864,0.40787 0.07629,0.6068 -0.114033,-0.0149 -0.228935,-0.0224 -0.343964,-0.0224 -1.448824,0.007 -2.618108,1.17107 -2.613413,2.60114 0.0049,1.43023 1.182255,2.5864 2.631258,2.58397 l 9.276771,0.0348 c 1.133968,-0.002 2.052187,-0.90984 2.052186,-2.02912 v -0.0141 c -0.0079,-1.11911 -0.932207,-2.02065 -2.066016,-2.01503 -0.132754,0.002 -0.264979,0.0171 -0.394822,0.0445 0.04391,-0.15514 0.06656,-0.31538 0.06736,-0.47645 l -4.58e-4,-0.0123 c -0.0069,-0.99477 -0.82843,-1.79623 -1.83626,-1.79135 -0.417022,0.003 -0.820339,0.14739 -1.142978,0.40821 -0.03954,-1.53231 -1.312566,-2.75247 -2.865475,-2.74646 z"
       sodipodi:nodetypes="cccccccscccccccc" />
  </g>
</svg>
