<?xml version="1.0" encoding="UTF-8" standalone="no"?>
<!-- Created with Inkscape (http://www.inkscape.org/) -->

<svg
   width="15.875mm"
   height="16.532232mm"
   viewBox="0 0 15.875 16.532232"
   version="1.1"
   id="svg1"
   inkscape:version="1.3 (0e150ed6c4, 2023-07-21)"
   sodipodi:docname="11n.svg"
   xml:space="preserve"
   xmlns:inkscape="http://www.inkscape.org/namespaces/inkscape"
   xmlns:sodipodi="http://sodipodi.sourceforge.net/DTD/sodipodi-0.dtd"
   xmlns="http://www.w3.org/2000/svg"
   xmlns:svg="http://www.w3.org/2000/svg"><sodipodi:namedview
     id="namedview1"
     pagecolor="#505050"
     bordercolor="#eeeeee"
     borderopacity="1"
     inkscape:showpageshadow="0"
     inkscape:pageopacity="0"
     inkscape:pagecheckerboard="0"
     inkscape:deskcolor="#505050"
     inkscape:document-units="mm"
     inkscape:zoom="8.1941058"
     inkscape:cx="41.981396"
     inkscape:cy="31.913183"
     inkscape:window-width="1920"
     inkscape:window-height="1009"
     inkscape:window-x="1912"
     inkscape:window-y="-8"
     inkscape:window-maximized="1"
     inkscape:current-layer="layer1" /><defs
     id="defs1" /><g
     inkscape:label="Calque 1"
     inkscape:groupmode="layer"
     id="layer1"
     transform="matrix(0.90450532,0,0,0.90450532,-55.042907,-121.81239)"><path
       style="fill:#e89d11;fill-opacity:1;stroke-width:1.23737"
       d="m 67.303341,145.24196 c 2.465576,-0.0408 2.515894,0 2.515894,0 l -1.660489,2.36561 2.012714,0.0408 -5.283376,5.30222 1.66049,-3.71155 -1.66049,-0.16314 z"
       id="path1"
       transform="translate(1.1516424e-6)" /><path
       id="path2"
       style="fill:#39588c;fill-opacity:1;stroke:none;stroke-width:1.11865"
       d="m 69.608887,134.67294 c -1.681585,0.009 -3.038566,1.37736 -3.032763,3.05896 0.0033,0.2211 0.03058,0.44119 0.08145,0.65638 -0.121752,-0.0161 -0.244431,-0.0242 -0.367247,-0.0243 -1.546893,0.008 -2.795325,1.26675 -2.790313,2.81366 0.0053,1.54708 1.262281,2.79771 2.809366,2.79507 l 9.904709,0.0376 c 1.210725,-0.002 2.191098,-0.98418 2.191096,-2.1949 v -0.0152 c -0.0084,-1.21054 -0.995306,-2.18573 -2.205862,-2.17966 -0.14174,0.002 -0.282916,0.0185 -0.421548,0.0481 0.04688,-0.16781 0.07107,-0.34115 0.07192,-0.51538 l -4.88e-4,-0.0133 c -0.0073,-1.07604 -0.884505,-1.94297 -1.960555,-1.93769 -0.445249,0.004 -0.875867,0.15942 -1.220345,0.44155 -0.04221,-1.6575 -1.401414,-2.97734 -3.059437,-2.97084 z"
       sodipodi:nodetypes="cccccccscccccccc" /><path
       id="path2-5"
       style="fill:#d9e8cf;fill-opacity:1;stroke:none;stroke-width:1.11865"
       d="m 66.963043,136.52503 c -1.681585,0.009 -3.038566,1.37736 -3.032763,3.05896 0.0033,0.2211 0.03058,0.44119 0.08145,0.65638 -0.121752,-0.0161 -0.244431,-0.0242 -0.367247,-0.0243 -1.546893,0.008 -2.795325,1.26675 -2.790313,2.81366 0.0053,1.54708 1.262281,2.79771 2.809366,2.79507 l 9.904709,0.0376 c 1.210725,-0.002 2.191098,-0.98418 2.191096,-2.1949 v -0.0153 c -0.0084,-1.21054 -0.995306,-2.18573 -2.205862,-2.17966 -0.14174,0.002 -0.282916,0.0185 -0.421548,0.0481 0.04688,-0.16781 0.07107,-0.34115 0.07193,-0.51538 l -4.88e-4,-0.0133 c -0.0073,-1.07604 -0.884505,-1.94297 -1.960555,-1.93769 -0.445249,0.004 -0.875867,0.15942 -1.220345,0.44155 -0.04221,-1.6575 -1.401414,-2.97734 -3.059437,-2.97084 z"
       sodipodi:nodetypes="cccccccscccccccc" /></g></svg>
