<?xml version="1.0" encoding="UTF-8" standalone="no"?>
<svg
   version="1.0"
   width="45pt"
   height="21.838236pt"
   viewBox="0 0 45 21.838236"
   preserveAspectRatio="xMidYMid"
   id="svg6"
   sodipodi:docname="50d.svg"
   inkscape:version="1.3 (0e150ed6c4, 2023-07-21)"
   xmlns:inkscape="http://www.inkscape.org/namespaces/inkscape"
   xmlns:sodipodi="http://sodipodi.sourceforge.net/DTD/sodipodi-0.dtd"
   xmlns="http://www.w3.org/2000/svg"
   xmlns:svg="http://www.w3.org/2000/svg">
  <defs
     id="defs6" />
  <sodipodi:namedview
     id="namedview6"
     pagecolor="#505050"
     bordercolor="#eeeeee"
     borderopacity="1"
     inkscape:showpageshadow="0"
     inkscape:pageopacity="0"
     inkscape:pagecheckerboard="0"
     inkscape:deskcolor="#505050"
     inkscape:document-units="pt"
     inkscape:zoom="8.6231672"
     inkscape:cx="13.858017"
     inkscape:cy="-3.3050501"
     inkscape:window-width="1920"
     inkscape:window-height="1009"
     inkscape:window-x="1912"
     inkscape:window-y="-8"
     inkscape:window-maximized="1"
     inkscape:current-layer="svg6" />
  <path
     id="rect6"
     style="fill:#1b4452;stroke-width:2.07673"
     d="M 1.6544118,4.6323529 A 1.6544118,1.6544118 0 0 0 0,6.2867648 1.6544118,1.6544118 0 0 0 1.6544118,7.9411767 H 28.125 A 1.6544118,1.6544118 0 0 0 29.779412,6.2867648 1.6544118,1.6544118 0 0 0 28.125,4.6323529 Z" />
  <path
     id="rect6-2"
     style="fill:#1b4452;stroke-width:1.38449"
     d="m 13.970589,0 a 0.73529413,1.6544118 0 0 0 -0.735295,1.6544117 0.73529413,1.6544118 0 0 0 0.735295,1.6544118 H 25.735294 A 0.73529413,1.6544118 0 0 0 26.470588,1.6544117 0.73529413,1.6544118 0 0 0 25.735294,0 Z" />
  <path
     id="rect6-0"
     style="fill:#1b4452;stroke-width:1.38449"
     d="m 3.1615811,18.529412 c -0.4060916,0 -1.176287,0.740705 -1.176287,1.654412 0,0.913706 0.7701954,1.654412 1.176287,1.654412 H 14.044522 c 0.406092,0 1.176066,-0.740706 1.176066,-1.654412 0,-0.913707 -0.769974,-1.654412 -1.176066,-1.654412 z"
     sodipodi:nodetypes="csccscc" />
  <path
     id="rect6-0-8"
     style="fill:#1b4452;stroke-width:1.38449"
     d="m 11.764523,9.2647056 c -0.406092,0 -1.176288,0.7407064 -1.176288,1.6544124 0,0.913706 0.770196,1.654412 1.176288,1.654412 h 10.88294 c 0.406092,0 1.176067,-0.740706 1.176067,-1.654412 0,-0.913706 -0.769974,-1.6544124 -1.176067,-1.6544124 z"
     sodipodi:nodetypes="csccscc" />
  <path
     id="rect6-0-1"
     style="fill:#1b4452;stroke-width:1.69564"
     d="m 18.308824,18.529412 a 1.1029412,1.6544118 0 0 0 -1.102942,1.654412 1.1029412,1.6544118 0 0 0 1.102942,1.654412 h 17.647058 a 1.1029412,1.6544118 0 0 0 1.102942,-1.654412 1.1029412,1.6544118 0 0 0 -1.102942,-1.654412 z" />
  <path
     id="rect6-0-1-5-1"
     style="fill:#1b4452;stroke-width:1.69564"
     d="M 26.25,9.2647056 A 1.1029412,1.6544118 0 0 0 25.147059,10.919118 1.1029412,1.6544118 0 0 0 26.25,12.57353 H 43.897059 A 1.1029412,1.6544118 0 0 0 45,10.919118 1.1029412,1.6544118 0 0 0 43.897059,9.2647056 Z" />
  <path
     id="rect6-5"
     style="fill:#1b4452;stroke-width:2.07673"
     d="m 6.9485294,13.897059 a 1.6544118,1.6544118 0 0 0 -1.6544118,1.654412 1.6544118,1.6544118 0 0 0 1.6544118,1.654412 H 33.419118 a 1.6544118,1.6544118 0 0 0 1.654411,-1.654412 1.6544118,1.6544118 0 0 0 -1.654411,-1.654412 z" />
  <path
     id="rect6-0-1-9"
     style="fill:#1b4452;stroke-width:0.978979"
     d="m 32.926095,4.6323529 c -0.203046,-7e-7 -1.161389,0.7407048 -1.161389,1.6544118 0,0.9137066 0.958343,1.6544128 1.161389,1.6544119 h 4.382647 c 0.203046,9e-7 1.073611,-0.7407053 1.073611,-1.6544119 0,-0.913707 -0.870565,-1.6544125 -1.073611,-1.6544118 z"
     sodipodi:nodetypes="csccscc" />
  <path
     id="rect6-0-1-9-4"
     style="fill:#1b4452;stroke-width:0.978979"
     d="m 3.8084479,9.2647056 c -0.2030461,0 -1.1613891,0.7407064 -1.1613891,1.6544124 0,0.913707 0.958343,1.654414 1.1613891,1.654413 H 8.191095 c 0.203046,1e-6 1.073611,-0.740706 1.073611,-1.654413 0,-0.913706 -0.870565,-1.6544124 -1.073611,-1.6544124 z"
     sodipodi:nodetypes="csccscc" />
</svg>
