<?xml version="1.0" encoding="UTF-8" standalone="no"?>
<svg
   id="Icons"
   viewBox="0 0 24.999831 24.999832"
   version="1.1"
   sodipodi:docname="searchgrey.svg"
   width="24.99983"
   height="24.999832"
   inkscape:version="1.3 (0e150ed6c4, 2023-07-21)"
   xmlns:inkscape="http://www.inkscape.org/namespaces/inkscape"
   xmlns:sodipodi="http://sodipodi.sourceforge.net/DTD/sodipodi-0.dtd"
   xmlns="http://www.w3.org/2000/svg"
   xmlns:svg="http://www.w3.org/2000/svg">
  <sodipodi:namedview
     id="namedview2"
     pagecolor="#505050"
     bordercolor="#eeeeee"
     borderopacity="1"
     inkscape:showpageshadow="0"
     inkscape:pageopacity="0"
     inkscape:pagecheckerboard="0"
     inkscape:deskcolor="#505050"
     inkscape:zoom="11.976621"
     inkscape:cx="28.472137"
     inkscape:cy="2.2961401"
     inkscape:window-width="1920"
     inkscape:window-height="1009"
     inkscape:window-x="1912"
     inkscape:window-y="-8"
     inkscape:window-maximized="1"
     inkscape:current-layer="Icons" />
  <defs
     id="defs1">
    <style
       id="style1">.cls-1{fill:#232323;}</style>
  </defs>
  <path
     class="cls-1"
     d="m 19.66001,15.255908 a 10.423888,10.423671 0 1 0 -4.403786,4.403694 l 4.424588,4.425536 a 3.1143163,3.1142514 0 1 0 4.408986,-4.399534 z M 2.1280755,10.446584 A 8.3208044,8.320631 0 1 1 10.448879,18.767215 8.3301653,8.3299917 0 0 1 2.1280755,10.446584 Z M 22.618056,22.623827 a 1.0401005,1.0400789 0 0 1 -1.456141,0 l -4.126079,-4.127033 a 10.496695,10.496476 0 0 0 1.456141,-1.462351 l 4.131279,4.124953 a 1.0151381,1.015117 0 0 1 -0.0094,1.463391 z"
     id="path1-5"
     style="fill:#232323;stroke-width:1.04009" />
  <path
     class="cls-1"
     d="m 10.669659,4.2613726 a 6.2468439,6.2467137 0 0 0 -6.2406025,6.2404734 1.0401005,1.0400789 0 0 0 2.080201,0 4.1604022,4.1603155 0 0 1 4.1604015,-4.1603154 1.0401006,1.040079 0 0 0 0,-2.080158 z"
     id="path2"
     style="stroke-width:1.04009" />
</svg>
